<?xml version="1.0" standalone="no"?><!DOCTYPE svg PUBLIC "-//W3C//DTD SVG 1.1//EN" "http://www.w3.org/Graphics/SVG/1.1/DTD/svg11.dtd"><svg t="1712990934156" class="icon" viewBox="0 0 1024 1024" version="1.1" xmlns="http://www.w3.org/2000/svg" p-id="6791" xmlns:xlink="http://www.w3.org/1999/xlink" width="200" height="200"><path d="M795.648 384.512L247.296 386.048c-60.928 0-110.592 50.176-110.592 111.104l1.024 362.496c0 60.928 50.176 110.592 111.104 110.592l548.352-1.024c60.928 0 110.592-50.176 110.592-111.104l-1.024-362.496c0-61.44-50.176-111.104-111.104-111.104z m19.968 452.096c0 27.136-22.016 49.664-49.664 49.664l-486.912 1.024c-27.136 0-49.664-22.016-49.664-49.664l-0.512-320c0-27.136 22.016-49.664 49.664-49.664l486.912-1.024c27.136 0 49.664 22.016 49.664 49.664l0.512 320z" p-id="6792"></path><path d="M522.24 527.36c-44.544 0-80.896 36.352-80.896 80.896 0 27.648 13.824 52.224 35.328 66.56v105.984c0 25.6 20.48 46.08 46.08 46.08s46.08-20.48 46.08-46.08V675.328c20.992-14.848 35.328-38.912 35.328-66.56-0.512-45.056-37.376-81.408-81.92-81.408zM549.888 26.624h-11.776-0.512-12.288C375.808 32.768 256 156.672 256 307.2V391.168h92.16v-93.184-3.584c-1.024-7.68 3.072-27.648 5.632-36.864 18.432-84.48 94.208-148.48 183.808-148.48 82.432 0.512 152.576 54.272 178.176 128 4.608 9.728 8.192 30.72 10.24 46.08 0 0.512 0.512 1.024 0.512 1.536 0.512 4.096 0.512 8.704 0.512 12.8V391.168h92.16V307.2c-0.512-150.528-120.32-274.432-269.312-280.576z" p-id="6793"></path></svg>