<?xml version="1.0" standalone="no"?><!DOCTYPE svg PUBLIC "-//W3C//DTD SVG 1.1//EN" "http://www.w3.org/Graphics/SVG/1.1/DTD/svg11.dtd"><svg t="1712991503675" class="icon" viewBox="0 0 1024 1024" version="1.1" xmlns="http://www.w3.org/2000/svg" p-id="16607" xmlns:xlink="http://www.w3.org/1999/xlink" width="200" height="200"><path d="M512 0a512 512 0 1 0 512 512A512 512 0 0 0 512 0z m0 945.230769a433.230769 433.230769 0 1 1 433.230769-433.230769 433.230769 433.230769 0 0 1-433.230769 433.230769z" p-id="16608"></path><path d="M716.8 330.830769l-208.738462 248.123077a48.443077 48.443077 0 0 1-59.076923 7.876923L299.323077 472.615385a42.535385 42.535385 0 0 0-55.138462 7.876923 42.535385 42.535385 0 0 0 7.876923 55.138461l149.661539 114.215385a121.304615 121.304615 0 0 0 74.830769 23.630769 125.636923 125.636923 0 0 0 94.523077-43.323077l208.738462-248.123077a39.384615 39.384615 0 0 0-3.938462-55.138461 39.384615 39.384615 0 0 0-59.076923 3.938461z" p-id="16609"></path></svg>