<?xml version="1.0" standalone="no"?><!DOCTYPE svg PUBLIC "-//W3C//DTD SVG 1.1//EN" "http://www.w3.org/Graphics/SVG/1.1/DTD/svg11.dtd"><svg t="1685690685476" class="icon" viewBox="0 0 1024 1024" version="1.1" xmlns="http://www.w3.org/2000/svg" p-id="5054" xmlns:xlink="http://www.w3.org/1999/xlink" width="200" height="200"><path d="M815.957333 326.144a42.666667 42.666667 0 1 1 75.946667 38.912A426.581333 426.581333 0 0 1 512 597.333333a426.581333 426.581333 0 0 1-378.154667-228.906666 42.666667 42.666667 0 1 1 75.562667-39.637334A341.248 341.248 0 0 0 512 512a341.248 341.248 0 0 0 303.957333-185.856z" fill="#434A54" p-id="5055"></path><path d="M533.205333 509.397333a42.666667 42.666667 0 0 1 42.410667 37.674667l0.256 4.992v135.338667a42.666667 42.666667 0 0 1-85.034667 4.992l-0.298666-4.992v-135.338667a42.666667 42.666667 0 0 1 42.666666-42.666667z m187.306667-12.757333l1.536 4.736 46.08 171.946667a42.666667 42.666667 0 0 1-80.853333 26.837333l-1.578667-4.736-46.08-171.946667a42.666667 42.666667 0 0 1 80.896-26.837333z m-417.237333 0a42.666667 42.666667 0 0 1 80.853333 26.837333l-46.08 171.946667-1.536 4.693333a42.666667 42.666667 0 0 1-80.853333-26.794666l46.08-171.946667zM285.013333 419.968a42.666667 42.666667 0 0 1 3.541334 56.32l-3.541334 4.010667-125.866666 125.866666a42.666667 42.666667 0 0 1-63.914667-56.32l3.541333-4.010666 125.866667-125.866667a42.666667 42.666667 0 0 1 60.373333 0z m453.76 0a42.666667 42.666667 0 0 1 60.330667 0l125.866667 125.866667 3.584 4.010666a42.666667 42.666667 0 0 1-63.914667 56.32l-125.866667-125.866666-3.541333-4.010667a42.666667 42.666667 0 0 1 3.541333-56.32z" fill="#434A54" p-id="5056"></path></svg>