<?xml version="1.0" standalone="no"?><!DOCTYPE svg PUBLIC "-//W3C//DTD SVG 1.1//EN" "http://www.w3.org/Graphics/SVG/1.1/DTD/svg11.dtd"><svg t="1686552256851" class="icon" viewBox="0 0 1024 1024" version="1.1" xmlns="http://www.w3.org/2000/svg" p-id="1457" xmlns:xlink="http://www.w3.org/1999/xlink" width="200" height="200"><path d="M926.57 479.71l-751.8 0.18 311.66-311.35a32 32 0 1 0-45.23-45.28l-366.39 366q-0.54 0.54-1 1.11v0.05l-0.46 0.54c-0.17 0.19-0.35 0.39-0.51 0.59l-0.09 0.11c-0.16 0.19-0.31 0.39-0.46 0.59l-0.06 0.07c-0.12 0.16-0.24 0.3-0.35 0.46l-0.12 0.15c-0.15 0.2-0.28 0.41-0.43 0.61l-0.06 0.1c-0.1 0.13-0.2 0.27-0.29 0.41l-0.14 0.19-0.4 0.65v0.06l-0.26 0.41c0 0.08-0.09 0.15-0.14 0.23s-0.24 0.44-0.36 0.66c-0.09 0.16-0.18 0.31-0.26 0.47s-0.1 0.16-0.14 0.24-0.2 0.41-0.3 0.62-0.19 0.37-0.28 0.55a2.56 2.56 0 0 0-0.11 0.24c-0.09 0.18-0.17 0.37-0.25 0.56l-0.29 0.66a1.89 1.89 0 0 1-0.09 0.21c-0.06 0.17-0.12 0.34-0.19 0.5s-0.2 0.52-0.29 0.77a1.34 1.34 0 0 1-0.07 0.18c0 0.16-0.09 0.31-0.14 0.46s-0.19 0.58-0.28 0.87a0.88 0.88 0 0 0 0 0.15c0 0.14-0.08 0.28-0.11 0.42-0.09 0.31-0.18 0.63-0.26 1v0.12c0 0.14-0.06 0.28-0.09 0.41-0.08 0.33-0.16 0.66-0.22 1a0.43 0.43 0 0 0 0 0.11c0 0.15 0 0.3-0.08 0.44-0.06 0.33-0.12 0.66-0.17 1v0.09c0 0.03 0 0.36-0.07 0.54s-0.08 0.6-0.11 0.91v0.07c0 0.26 0 0.52-0.06 0.77s0 0.48 0 0.72V514.23c0 0.24 0 0.48 0.06 0.72a0.19 0.19 0 0 0 0 0.08c0 0.31 0.07 0.61 0.1 0.91s0 0.36 0.07 0.53 0 0.07 0 0.11c0 0.32 0.11 0.65 0.17 1 0 0.14 0 0.29 0.07 0.43v0.12c0.06 0.33 0.14 0.66 0.22 1 0 0.13 0 0.27 0.08 0.4v0.13c0.08 0.32 0.17 0.64 0.26 1 0 0.13 0.07 0.27 0.11 0.4a1 1 0 0 0 0 0.16c0.09 0.29 0.18 0.59 0.28 0.88l0.14 0.44 0.07 0.18 0.3 0.79 0.18 0.48 0.09 0.21 0.3 0.69c0.08 0.18 0.15 0.36 0.23 0.53l0.12 0.24c0.09 0.2 0.19 0.39 0.29 0.59l0.29 0.58 0.13 0.24c0.09 0.17 0.19 0.34 0.29 0.51s0.22 0.42 0.35 0.63 0.09 0.15 0.14 0.23 0.19 0.31 0.29 0.46c0.13 0.22 0.26 0.43 0.4 0.64a2.43 2.43 0 0 0 0.14 0.2l0.32 0.46 0.42 0.61 0.12 0.16 0.41 0.52 0.45 0.58 0.09 0.1c0.18 0.23 0.38 0.44 0.57 0.66l0.4 0.48q0.51 0.57 1.05 1.11L441.2 900.74a32 32 0 0 0 45.24-45.27L174.7 543.89l751.88-0.18a32 32 0 0 0 0-64z" fill="#333333" p-id="1458"></path></svg>