<?xml version="1.0" standalone="no"?><!DOCTYPE svg PUBLIC "-//W3C//DTD SVG 1.1//EN" "http://www.w3.org/Graphics/SVG/1.1/DTD/svg11.dtd"><svg class="icon" width="200px" height="200.00px" viewBox="0 0 1024 1024" version="1.1" xmlns="http://www.w3.org/2000/svg"><path fill="#bfbfbf" d="M881.178947 91.621053c0-29.642105-24.252632-56.589474-56.589473-56.589474H242.526316c-29.642105 0-53.894737 24.252632-53.894737 56.589474v520.08421c-10.778947 0-18.863158 2.694737-26.947368 8.084211-10.778947 5.389474-24.252632 24.252632-16.168422 59.28421v5.389474c16.168421 32.336842 29.642105 64.673684 37.726316 88.926316 5.389474 16.168421 10.778947 32.336842 16.168421 43.115789l2.694737 5.389474c8.084211 13.473684 18.863158 37.726316 43.11579 56.589474 0 0 10.778947 10.778947 13.473684 24.252631h-13.473684c-10.778947 0-18.863158 8.084211-18.863158 18.863158V970.105263c0 10.778947 8.084211 18.863158 18.863158 18.863158s18.863158-8.084211 18.863158-18.863158v-26.947368h293.726315v26.947368c0 10.778947 8.084211 18.863158 18.863158 18.863158s16.168421-8.084211 16.168421-18.863158v-45.810526c0-10.778947-8.084211-18.863158-18.863158-18.863158h-13.473684v-8.084211l32.336842-56.589473c2.694737-2.694737 2.694737-5.389474 2.694737-10.778948v-150.905263h110.484211c2.694737 0 5.389474 0 8.08421-2.694737l2.694737-2.694736s2.694737 0 2.694737-2.694737l153.6-145.51579s2.694737-2.694737 2.694737-5.389473v-2.694737-2.694737V91.621053zM727.578947 568.589474c0-18.863158 13.473684-32.336842 32.336842-32.336842h56.589474L727.578947 619.789474v-51.2zM242.526316 72.757895h582.063158c10.778947 0 18.863158 8.084211 18.863158 18.863158v406.905263h-83.536843c-37.726316 0-70.063158 32.336842-70.063157 70.063158V646.736842H592.842105c-5.389474-18.863158-18.863158-29.642105-29.642105-32.336842-10.778947-5.389474-21.557895-5.389474-35.031579-2.694737-5.389474-16.168421-16.168421-29.642105-29.642105-35.031579-13.473684-8.084211-32.336842-8.084211-48.505263-2.694737-5.389474-8.084211-13.473684-13.473684-21.557895-18.863158-10.778947-5.389474-24.252632-8.084211-37.726316-5.389473v-97.010527c0-32.336842-26.947368-61.978947-61.978947-61.978947-32.336842 0-61.978947 26.947368-61.978948 61.978947v234.442106l-16.168421-24.252632c0-2.694737-2.694737-2.694737-2.694737-5.389474-5.389474-8.084211-13.473684-18.863158-26.947368-29.642105V91.621053c5.389474-10.778947 13.473684-18.863158 21.557895-18.863158z m56.589473 832.673684c-5.389474-29.642105-21.557895-48.505263-26.947368-53.894737-18.863158-16.168421-26.947368-32.336842-32.336842-45.810526l-2.694737-8.084211c-5.389474-8.084211-10.778947-21.557895-16.168421-37.726316-8.084211-24.252632-21.557895-56.589474-37.726316-91.621052-2.694737-10.778947 0-16.168421 0-18.863158 2.694737-2.694737 10.778947-2.694737 21.557895 5.389474 5.389474 5.389474 10.778947 10.778947 13.473684 18.863158 2.694737 2.694737 2.694737 5.389474 2.694737 5.389473l37.726316 61.978948c2.694737 5.389474 10.778947 8.084211 16.168421 8.08421h2.694737c8.084211 0 13.473684-5.389474 16.168421-10.778947l10.778947-26.947369c0-2.694737 2.694737-5.389474 2.694737-8.08421v-253.305263c0-13.473684 10.778947-24.252632 24.252632-24.252632s24.252632 10.778947 24.252631 24.252632v210.189473c0 10.778947 8.084211 18.863158 18.863158 18.863158s18.863158-8.084211 18.863158-18.863158v-75.452631c8.084211-2.694737 16.168421 0 21.557895 2.694737 5.389474 2.694737 8.084211 8.084211 10.778947 13.473684v70.063158c0 10.778947 8.084211 18.863158 18.863158 18.863158s18.863158-8.084211 18.863158-18.863158v-64.673685c8.084211-2.694737 16.168421 0 21.557895 2.694737 5.389474 2.694737 8.084211 8.084211 10.778947 13.473685v70.063157c0 10.778947 8.084211 18.863158 18.863158 18.863158s18.863158-8.084211 18.863158-18.863158V646.736842c5.389474-2.694737 13.473684-2.694737 16.168421 0 2.694737 0 5.389474 2.694737 8.08421 13.473684v169.768421l-32.336842 56.589474c-2.694737 2.694737-2.694737 5.389474-2.694737 10.778947v13.473685h-223.663158z"  /><path fill="#bfbfbf" d="M331.452632 237.136842h409.6c10.778947 0 18.863158-8.084211 18.863157-18.863158s-8.084211-18.863158-18.863157-18.863158H331.452632c-10.778947 0-18.863158 8.084211-18.863158 18.863158s8.084211 18.863158 18.863158 18.863158zM741.052632 350.315789H466.189474c-10.778947 0-18.863158 8.084211-18.863158 18.863158s8.084211 18.863158 18.863158 18.863158h274.863158c10.778947 0 18.863158-8.084211 18.863157-18.863158s-8.084211-18.863158-18.863157-18.863158z"  /></svg>