<?xml version="1.0" standalone="no"?><!DOCTYPE svg PUBLIC "-//W3C//DTD SVG 1.1//EN" "http://www.w3.org/Graphics/SVG/1.1/DTD/svg11.dtd"><svg t="1686552291169" class="icon" viewBox="0 0 1024 1024" version="1.1" xmlns="http://www.w3.org/2000/svg" p-id="1927" xmlns:xlink="http://www.w3.org/1999/xlink" width="200" height="200"><path d="M950.29 533.58v-0.05c0.15-0.16 0.29-0.34 0.43-0.5s0.37-0.42 0.55-0.64a0.39 0.39 0 0 0 0.08-0.1c0.16-0.18 0.3-0.38 0.45-0.57v-0.07l0.37-0.48 0.12-0.15 0.38-0.55 0.1-0.14 0.3-0.43c0.05-0.06 0.09-0.13 0.14-0.2s0.22-0.36 0.34-0.54l0.09-0.14 0.27-0.44 0.14-0.22 0.31-0.56 0.06-0.1 0.27-0.48 0.13-0.24c0.1-0.19 0.18-0.38 0.28-0.57l0.28-0.57a1.63 1.63 0 0 0 0.11-0.23c0.09-0.18 0.16-0.36 0.24-0.54l0.3-0.67 0.09-0.21 0.18-0.49 0.3-0.78c0-0.07 0-0.13 0.07-0.19s0.09-0.29 0.14-0.43c0.1-0.3 0.19-0.59 0.28-0.89a0.88 0.88 0 0 0 0-0.15c0-0.14 0.07-0.27 0.11-0.4 0.09-0.32 0.18-0.64 0.26-1v-0.13c0-0.05 0.05-0.25 0.08-0.37 0.08-0.34 0.15-0.67 0.22-1v-0.12-0.3a0.36 0.36 0 0 1 0-0.11c0.06-0.34 0.12-0.67 0.17-1v-0.36a2.51 2.51 0 0 1 0-0.27c0-0.3 0.08-0.61 0.11-0.91v-0.09-0.21-0.59-0.74a0.81 0.81 0 0 0 0-0.16V512v-1.44-0.69l-0.06-0.87c0-0.29-0.07-0.58-0.11-0.88s0-0.44-0.08-0.66-0.11-0.64-0.17-1-0.06-0.38-0.1-0.57-0.14-0.65-0.21-1-0.08-0.37-0.13-0.56-0.16-0.62-0.25-0.93-0.11-0.39-0.16-0.58-0.19-0.58-0.28-0.87-0.14-0.43-0.22-0.64-0.19-0.51-0.29-0.77-0.18-0.48-0.28-0.71-0.19-0.45-0.29-0.67-0.23-0.53-0.36-0.79l-0.28-0.56c-0.14-0.29-0.28-0.57-0.43-0.85l-0.27-0.48c-0.17-0.3-0.33-0.6-0.51-0.89l-0.27-0.43c-0.18-0.3-0.37-0.6-0.57-0.89l-0.29-0.42-0.6-0.85-0.36-0.46c-0.2-0.26-0.39-0.51-0.6-0.76s-0.33-0.38-0.49-0.58l-0.53-0.6c-0.27-0.3-0.55-0.59-0.83-0.88-0.09-0.09-0.16-0.18-0.25-0.26L582.8 123.26a32 32 0 0 0-45.24 45.27l311.75 311.58-751.89 0.18a32 32 0 0 0 0 64l751.8-0.18-311.65 311.35a32 32 0 0 0 45.23 45.28l366.39-366c0.38-0.39 0.74-0.74 1.1-1.16z" fill="#333333" p-id="1928"></path></svg>