<?xml version="1.0" standalone="no"?><!DOCTYPE svg PUBLIC "-//W3C//DTD SVG 1.1//EN" "http://www.w3.org/Graphics/SVG/1.1/DTD/svg11.dtd"><svg class="icon" width="200px" height="200.00px" viewBox="0 0 1024 1024" version="1.1" xmlns="http://www.w3.org/2000/svg"><path fill="#bfbfbf" d="M698.026667 406.186667H146.773333c-18.773333 0-34.133333 15.36-34.133333 35.84 0 18.773333 15.36 35.84 34.133333 35.84h549.546667c18.773333 0 34.133333-15.36 34.133333-35.84 1.706667-18.773333-13.653333-35.84-32.426666-35.84zM698.026667 544.426667H146.773333c-18.773333 0-34.133333 15.36-34.133333 35.84 0 18.773333 15.36 35.84 34.133333 35.84h549.546667c18.773333 0 34.133333-15.36 34.133333-35.84 1.706667-20.48-13.653333-35.84-32.426666-35.84zM698.026667 682.666667H146.773333c-18.773333 0-34.133333 15.36-34.133333 35.84s15.36 35.84 34.133333 35.84h549.546667c18.773333 0 34.133333-15.36 34.133333-35.84S716.8 682.666667 698.026667 682.666667z"  /><path fill="#bfbfbf" d="M0 972.8a51.2 51.2 0 1 0 102.4 0 51.2 51.2 0 1 0-102.4 0Z"  /><path fill="#bfbfbf" d="M803.84 972.8a51.2 51.2 0 1 0 102.4 0 51.2 51.2 0 1 0-102.4 0Z"  /><path fill="#bfbfbf" d="M636.586667 339.626667h61.44c18.773333 0 34.133333-15.36 34.133333-35.84 0-18.773333-15.36-35.84-34.133333-35.84h-61.44c-18.773333 0-34.133333 15.36-34.133334 35.84 0 20.48 15.36 35.84 34.133334 35.84z"  /><path fill="#bfbfbf" d="M989.866667 0c-83.626667 0-151.893333 69.973333-151.893334 153.6v559.786667c0 58.026667-46.08 105.813333-104.106666 105.813333H174.08c-58.026667 0-104.106667-47.786667-104.106667-105.813333V445.44c0-58.026667 46.08-105.813333 104.106667-105.813333h32.426667c18.773333 0 34.133333-15.36 34.133333-35.84 0-18.773333-15.36-35.84-34.133333-35.84h-32.426667C78.506667 267.946667 0 346.453333 0 443.733333v269.653334c0 97.28 78.506667 175.786667 174.08 175.786666H733.866667c95.573333 0 174.08-78.506667 174.08-175.786666V153.6c0-46.08 37.546667-83.626667 81.92-83.626667 18.773333 0 34.133333-15.36 34.133333-35.84s-15.36-34.133333-34.133333-34.133333z"  /><path fill="#bfbfbf" d="M295.253333 336.213333h254.293334c18.773333 0 34.133333-15.36 34.133333-35.84 0-18.773333-15.36-35.84-34.133333-35.84h-42.666667c-11.946667-34.133333-46.08-59.733333-85.333333-59.733333s-71.68 25.6-83.626667 61.44h-42.666667c-18.773333 0-34.133333 15.36-34.133333 35.84-1.706667 18.773333 13.653333 34.133333 34.133333 34.133333z"  /></svg>