<?xml version="1.0" standalone="no"?><!DOCTYPE svg PUBLIC "-//W3C//DTD SVG 1.1//EN" "http://www.w3.org/Graphics/SVG/1.1/DTD/svg11.dtd"><svg t="1692165888398" class="icon" viewBox="0 0 1024 1024" version="1.1" xmlns="http://www.w3.org/2000/svg" p-id="1608" xmlns:xlink="http://www.w3.org/1999/xlink" width="200" height="200"><path d="M1007.138472 490.782769 879.329575 299.0684c-17.830087-26.748201-47.673789-42.690288-79.754438-42.690288L671.766238 256.378112l0-63.904449c0-52.851719-43.012629-95.860255-95.860255-95.860255L96.614943 96.613408c-52.850695 0-95.859231 43.007513-95.859231 95.860255l0 351.476003c0 52.851719 43.007513 95.860255 95.859231 95.860255l0 0 0 95.859231c0 52.850695 43.007513 95.859231 95.860255 95.859231l36.489052 0c14.280238 54.991452 63.904449 95.859231 123.30328 95.859231 59.33641 0 108.960621-40.86778 123.239835-95.859231l168.808684 0c14.251585 54.991452 63.904449 95.859231 123.275651 95.859231 59.300594 0 108.960621-40.86778 123.21016-95.859231l36.582173 0c52.850695 0 95.859231-43.007513 95.859231-95.859231L1023.243265 543.949666C1023.242242 524.974499 1017.684666 506.568291 1007.138472 490.782769L1007.138472 490.782769zM96.614943 575.904449c-17.639752 0-31.954783-14.280238-31.954783-31.955806L64.66016 192.473663c0-17.669428 14.314007-31.955806 31.954783-31.955806l479.291041 0c17.670451 0 31.950689 14.285355 31.950689 31.955806l0 351.476003c0 17.674545-14.280238 31.955806-31.950689 31.955806L96.614943 575.905472 96.614943 575.904449zM352.267531 863.477027c-35.308157 0-63.904449-28.629038-63.904449-63.903425s28.595268-63.904449 63.904449-63.904449c35.276435 0 63.904449 28.630061 63.904449 63.904449S387.512243 863.477027 352.267531 863.477027L352.267531 863.477027zM767.620353 863.477027c-35.304064 0-63.904449-28.629038-63.904449-63.903425s28.600385-63.904449 63.904449-63.904449c35.280528 0 63.909565 28.630061 63.909565 63.904449S802.899858 863.477027 767.620353 863.477027L767.620353 863.477027zM959.337793 735.668129c0 17.669428-14.280238 31.954783-31.954783 31.954783l-36.518728 0c-14.286378-54.991452-63.909565-95.859231-123.244952-95.859231-59.399855 0-109.017926 40.86778-123.304304 95.859231L475.543182 767.622912c-14.287401-54.991452-63.907519-95.859231-123.242905-95.859231-59.398832 0-109.020996 40.86778-123.308397 95.859231l-36.517705 0c-17.640776 0-31.955806-14.285355-31.955806-31.954783l0-95.859231 415.386592 0c52.847625 0 95.860255-43.007513 95.860255-95.860255L671.765215 320.281537 799.574113 320.281537c10.673084 0 20.643156 5.339612 26.586518 14.222933L953.970552 526.217816c3.480264 5.240351 5.367241 11.438517 5.367241 17.73185L959.337793 735.668129 959.337793 735.668129zM959.337793 735.668129" p-id="1609"></path><path d="M345.312118 385.208269c4.101411 7.18361 2.196015 15.993253-4.252861 19.676132l-24.334221 13.892405c-6.449899 3.683902-15.004739 0.845251-19.105127-6.338359l-62.505589-109.476367c-4.100388-7.18361-2.197038-15.992229 4.252861-19.675108l24.333198-13.893428c6.449899-3.682879 15.005762-0.845251 19.10615 6.338359L345.312118 385.208269z" p-id="1610"></path><path d="M330.119091 412.568407c-13.503549 7.710612-27.303856 8.969279-30.818913 2.812045L286.03813 392.154471c-3.51608-6.158257 4.583388-17.401322 18.08796-25.112957l205.814506-117.509321c13.504572-7.709589 27.302833-8.969279 30.818913-2.812045l13.262048 23.225981c3.515057 6.157233-4.584412 17.400299-18.088984 25.110911L330.119091 412.568407z" p-id="1611"></path></svg>