<?xml version="1.0" standalone="no"?><!DOCTYPE svg PUBLIC "-//W3C//DTD SVG 1.1//EN" "http://www.w3.org/Graphics/SVG/1.1/DTD/svg11.dtd"><svg class="icon" width="200px" height="200.00px" viewBox="0 0 1024 1024" version="1.1" xmlns="http://www.w3.org/2000/svg"><path d="M907.946667 724.309333c-15.018667 0-27.306667 12.288-27.306667 27.306667v69.632c0 32.085333-26.624 58.709333-58.709333 58.709333H202.069333c-32.768 0-58.709333-25.941333-58.709333-58.709333V362.496c0-20.48 10.922667-39.594667 27.989333-49.834667l310.613334-188.416c19.114667-11.605333 42.325333-11.605333 61.44 0l309.248 188.416c17.749333 10.922667 27.989333 29.354667 27.989333 49.834667v88.746667c0 15.018667 12.288 27.306667 27.306667 27.306666s27.306667-12.288 27.306666-27.306666V365.909333c0-42.325333-22.528-81.92-58.709333-103.765333l-300.373333-182.954667C537.258667 54.613333 488.106667 54.613333 449.194667 78.506667L147.456 261.461333c-36.181333 21.845333-58.709333 61.44-58.709333 104.448V812.373333c0 67.584 54.613333 122.197333 122.197333 122.197334h602.112c67.584 0 122.197333-54.613333 122.197333-122.197334v-60.757333c0-15.018667-12.288-27.306667-27.306666-27.306667z" fill="#595757" /><path d="M557.738667 532.48l-95.573334 95.573333c-10.922667 10.922667-27.989333 10.922667-38.912 0-10.922667-10.922667-10.922667-27.989333 0-38.912l95.573334-95.573333c10.922667-10.922667 27.989333-10.922667 38.912 0 10.922667 10.922667 10.922667 27.989333 0 38.912z" fill="#9FA0A0" /><path d="M876.544 635.562667H443.733333c-15.018667 0-27.306667-12.288-27.306666-27.306667s12.288-27.306667 27.306666-27.306667h432.810667c15.018667 0 27.306667 12.288 27.306667 27.306667s-12.288 27.306667-27.306667 27.306667z" fill="#9FA0A0" /></svg>